<svg xmlns="http://www.w3.org/2000/svg" viewBox="0 0 45 45">
  <defs>
    <linearGradient id="gk1" x1="0%" y1="0%" x2="60%" y2="100%">
      <stop offset="0%" stop-color="#FFE680"/>
      <stop offset="35%" stop-color="#FFC200"/>
      <stop offset="100%" stop-color="#8B6200"/>
    </linearGradient>
    <linearGradient id="gk2" x1="0%" y1="0%" x2="60%" y2="100%">
      <stop offset="0%" stop-color="#FFD84D"/>
      <stop offset="100%" stop-color="#7A5400"/>
    </linearGradient>
    <filter id="kglow" x="-20%" y="-20%" width="140%" height="140%">
      <feGaussianBlur stdDeviation="0.6" result="b"/>
      <feMerge><feMergeNode in="b"/><feMergeNode in="SourceGraphic"/></feMerge>
    </filter>
  </defs>
  <g fill="none" stroke="#7A5000" stroke-linecap="round" stroke-linejoin="round" stroke-width="1.2" filter="url(#kglow)">
    <path stroke-linejoin="miter" d="M22.5 11.63V6M20 8h5"/>
    <path fill="url(#gk1)" stroke-linecap="butt" stroke-linejoin="miter" d="M22.5 25s4.5-7.5 3-10.5c0 0-1-2.5-3-2.5s-3 2.5-3 2.5c-1.5 3 3 10.5 3 10.5"/>
    <path fill="url(#gk2)" d="M12.5 37c5.5 3.5 14.5 3.5 20 0v-7s9-4.5 6-10.5c-4-6.5-13.5-3.5-16 4V27v-3.5c-2.5-7.5-12-10.5-16-4-3 6 6 10.5 6 10.5v7"/>
    <path d="M12.5 30c5.5-3 14.5-3 20 0m-20 3.5c5.5-3 14.5-3 20 0m-20 3.5c5.5-3 14.5-3 20 0"/>
  </g>
</svg>
